<svg width="52" height="48" viewBox="0 0 52 48" fill="none" xmlns="http://www.w3.org/2000/svg">
<path d="M0 6.96183C0 3.11692 3.32131 0 7.41835 0H43.7292C47.8262 0 51.1475 3.11692 51.1475 6.96183V41.0382C51.1475 44.8831 47.8262 48 43.7292 48H7.41835C3.32131 48 0 44.8831 0 41.0382V6.96183Z" fill="white"/>
<path d="M15.064 35.12V13.4H16.48V35.12H15.064ZM36.6031 35.12V13.4H38.0191V35.12H36.6031Z" fill="#F67570"/>
<path d="M33.5067 27.608C33.5067 28.456 33.2907 29.216 32.8587 29.888C32.4267 30.544 31.8427 31.064 31.1067 31.448C30.3867 31.816 29.5947 32 28.7307 32H20.6907V14.96H28.8987C29.6987 14.96 30.3867 15.176 30.9627 15.608C31.5547 16.024 32.0027 16.568 32.3067 17.24C32.6267 17.896 32.7867 18.584 32.7867 19.304C32.7867 20.152 32.5707 20.936 32.1387 21.656C31.7067 22.376 31.1067 22.912 30.3387 23.264C31.3147 23.552 32.0827 24.088 32.6427 24.872C33.2187 25.656 33.5067 26.568 33.5067 27.608ZM31.8267 27.32C31.8267 26.744 31.6987 26.216 31.4427 25.736C31.1867 25.24 30.8347 24.84 30.3867 24.536C29.9547 24.232 29.4587 24.08 28.8987 24.08H22.3707V30.536H28.7307C29.3067 30.536 29.8267 30.384 30.2907 30.08C30.7547 29.776 31.1227 29.384 31.3947 28.904C31.6827 28.408 31.8267 27.88 31.8267 27.32ZM22.3707 16.424V22.712H28.2267C28.7867 22.712 29.2827 22.568 29.7147 22.28C30.1467 21.976 30.4907 21.584 30.7467 21.104C31.0027 20.624 31.1307 20.112 31.1307 19.568C31.1307 18.992 31.0107 18.472 30.7707 18.008C30.5307 17.528 30.2027 17.144 29.7867 16.856C29.3707 16.568 28.8987 16.424 28.3707 16.424H22.3707Z" fill="black"/>
</svg>
